<svg xmlns="http://www.w3.org/2000/svg" width="46.831" height="46.829"  xmlns:v="https://vecta.io/nano"><path d="M23.529 0h-.226c-9.6.029-16.416 2.131-20.25 6.245a10.44 10.44 0 0 0-3.05 7.288v32.71c0 .323.262.586.585.586s.585-.262.585-.586V39.1h44.481v7.14c0 .323.262.586.585.586s.585-.262.585-.586V13.571a10.44 10.44 0 0 0-3.045-7.329C39.945 2.131 33.132.03 23.529 0zm10.355 18.486a86.07 86.07 0 0 0-20.936.146v-7.5a2.28 2.28 0 0 1 2.276-2.275h16.384a2.28 2.28 0 0 1 2.276 2.275zm-.772 1.059a59.83 59.83 0 0 1 12.544 2.589v9.255H1.177v-9.24c10.393-2.833 21.221-3.716 31.935-2.604zM1.177 37.933v-5.374h44.478v5.374zm44.479-24.4V20.9a61.92 61.92 0 0 0-10.6-2.267v-7.5a3.45 3.45 0 0 0-3.446-3.445H15.224a3.45 3.45 0 0 0-3.446 3.445v7.657a90.78 90.78 0 0 0-10.6 2.15v-7.446a9.47 9.47 0 0 1 2.76-6.478c3.574-3.811 10.309-5.832 19.48-5.845 9.171.014 15.906 2.034 19.48 5.845 1.727 1.734 2.715 4.07 2.757 6.517z" fill="#000000"/></svg>